<svg xmlns="http://www.w3.org/2000/svg" xmlns:xlink="http://www.w3.org/1999/xlink" viewBox="0 0 4680 3120"><defs><style>.cls-1{fill:none;}.cls-2,.cls-7{fill:#fff;}.cls-2{opacity:0;}.cls-3{fill:#f9d8ad;}.cls-4{fill:#6fb9c1;}.cls-5{fill:#579fa3;}.cls-6{opacity:0.49;}.cls-8{fill:#ff7189;}.cls-9{fill:#ff3952;}.cls-10{fill:#d3294a;}.cls-11{clip-path:url(#clip-path);}.cls-12{fill:#e82a4a;}.cls-13{clip-path:url(#clip-path-2);}.cls-14{fill:#e05372;}.cls-15{fill:#5e4348;}.cls-16{clip-path:url(#clip-path-3);}.cls-17{fill:#fd9570;}.cls-18{clip-path:url(#clip-path-4);}.cls-19{fill:#ff6333;}.cls-20{clip-path:url(#clip-path-5);}.cls-21{clip-path:url(#clip-path-6);}.cls-22{fill:#a59799;}.cls-23{clip-path:url(#clip-path-7);}.cls-24{fill:#d1bdc2;}.cls-25{fill:#827074;}.cls-26{clip-path:url(#clip-path-9);}.cls-27{fill:#fcb94b;}.cls-28{clip-path:url(#clip-path-10);}.cls-29{fill:#f7ca8b;}.cls-30{fill:#e59a2e;}.cls-31{fill:#681a22;}.cls-32{clip-path:url(#clip-path-11);}.cls-33{fill:#491119;}.cls-34{clip-path:url(#clip-path-12);}.cls-35{fill:#e04b28;}.cls-36{fill:#b6b6b6;}.cls-37{clip-path:url(#clip-path-13);}.cls-38{fill:#edbf8a;}</style><clipPath id="clip-path"><path class="cls-1" d="M1792,1571.3h492.07a41.47,41.47,0,0,1,41.46,41.47h0a41.47,41.47,0,0,1-41.46,41.47H1972.28a41.43,41.43,0,0,0-29.32,12.14l-13.74,13.73a43.13,43.13,0,0,0-3.3,3.73l-109,139Z"/></clipPath><clipPath id="clip-path-2"><path class="cls-1" d="M1376.3,1038.74l332.78,495.46a240.37,240.37,0,0,1,32.69,72l.92,3.44a310.63,310.63,0,0,1-1.11,164.1L1478.4,2709.52a34.51,34.51,0,0,0,33.22,43.85h510.07V2720.2H1619.47a34.51,34.51,0,0,1-33.21-43.88L1842,1770.47a276.87,276.87,0,0,0-1.84-156.62h0a534.85,534.85,0,0,0-76.82-154.77L1433,999.36a34.51,34.51,0,0,0-49.06-7.21h0A34.52,34.52,0,0,0,1376.3,1038.74Z"/></clipPath><clipPath id="clip-path-3"><path class="cls-1" d="M2065.68,2232s-38.7,59.43-63.58,65-45.62,22.12-116.11-2.76-102.28-44.23-114.72-2.77,1.38,80.17,49.76,96.76,124.4,95.37,206,82.93,53.9-70.49,71.87-99.52,60.82-84.31,60.82-84.31Z"/></clipPath><clipPath id="clip-path-4"><path class="cls-1" d="M2427.82,1552s-135.46,135.46-152.05,218.39-58.05,141-94,221.15-132.69,270.92-132.69,270.92,19.35-5.53,22.12,16.58-16.59,30.41-2.77,38.7,44.23,22.12,44.23,22.12,154.81-160.34,221.16-265.38c71.3-112.9,77.4-212.86,77.4-212.86l196.27-210.1Z"/></clipPath><clipPath id="clip-path-5"><path class="cls-1" d="M3359.42,1547.81s55.29-47,107.82-40.09,120.25,114.73,163.1,80.17,11-105.05-42.85-142.37-67.73-62.19-87.08-92.6-63.58-37.32-84.32,0-24.88,78.78-49.76,87.08S3359.42,1547.81,3359.42,1547.81Z"/></clipPath><clipPath id="clip-path-6"><path class="cls-1" d="M2781.66,1605.86s113.34,132.69,196.27,170,82.94,52.53,136.84,5.53,132.69-147.9,188-190.74,95.38-70.5,95.38-70.5-38.71-1.38-20.74-24.88,0-37.32-4.14-51.14-176.93,42.85-247.42,94-77.4,77.41-77.4,77.41l-112-134.08L2787.19,1603.1Z"/></clipPath><clipPath id="clip-path-7"><path class="cls-1" d="M2592.05,1245s-74.85,113.44-104.34,172.42-47.91,97.67-64.5,117.95-29.49,44.23-29.49,44.23,118,97.67,188,123.47,71.88-73.71,99.52-114.26,136.38,88.46,136.38,88.46-9.22-47.91,79.24-99.52S3013,1478.23,3013,1478.23s-55.29-35-84.78-73.71-46.07-118-94-164S2592.05,1245,2592.05,1245Z"/></clipPath><clipPath id="clip-path-9"><path class="cls-1" d="M2535.63,1041.46s-127.16,82.93-234.06,68.19S2154.14,794.5,2154.14,794.5s-47.92-57.13-25.8-95.83,20.27-9.21,42.39-20.27,27.64-5.53,42.38-5.53,7.38,18.43,24,29.49,9.22,40.54,1.84,55.28,86.62,165.87,95.84,197.2,16.58,29.49,44.23,5.53,95.83-129,141.9-132.69S2535.63,1041.46,2535.63,1041.46Z"/></clipPath><clipPath id="clip-path-10"><path class="cls-1" d="M2574.33,757.64s-53.45,46.08-75.56,121.64-22.12,114.26,12.9,184.29,44.23,164,40.54,180.61,7.38,18.43,7.38,31.33v33.17s99.52,24,215.62-40.54,62.66-49.76,62.66-49.76-38.7-184.29-12.9-250.64-35-206.41-35-206.41S2607.5,698.67,2574.33,757.64Z"/></clipPath><clipPath id="clip-path-11"><path class="cls-1" d="M2457.3,541.1s-52.52-73.72,19.35-107.81c-9.21-47,97.68-114.27,173.24-40.55,64.5-7.37,74.64,82.93,84.78,108.74s-11.06,19.35-10.14,30.4.92,24-6.45,33.18S2696,625,2649.89,629.56,2457.3,541.1,2457.3,541.1Z"/></clipPath><clipPath id="clip-path-12"><path class="cls-1" d="M2473.89,466.46S2438,496,2448.09,531.88s-32.25,58.06-32.25,58.06,20.27,16.58,19.35,24,.92,23,.92,23S2444.4,732.77,2531,706c10.14,25.8,27.64,67.27,18.43,94.91s-25.8,47-1.84,45.16,47-47,87.54-69.11,76.48-24.88,76.48-24.88-74.64-63.59-77.4-105c56.21-34.1,32.25-90.31-18.43-70,9.21-37.78-49.76-77.41-49.76-77.41s-26.73-5.53-39.63-13.82-2.76,6.45-2.76,6.45S2475.73,492.26,2473.89,466.46Z"/></clipPath><clipPath id="clip-path-13"><path class="cls-1" d="M2635.15,831.36c-.73-5.48,1.84-79.24,95.83-79.24s119.79,60.81,178.77,66.34,151.12,90.31,160.33,140.07-95.83,143.74-160.33,200.88-35,49.76-71.88,75.56-42.39,25.8-42.39,25.8-35,16.58-51.6,3.68-16.59,1.85-33.17-3.68-20.27-31.33-20.27-31.33-16.59-24-9.22-40.55,14.74-24,38.7-20.27,68.19,9.22,77.41-1.84,62.66-136.38,105-175.08,27.65-20.27-25.8-27.65S2649.89,941.94,2635.15,831.36Z"/></clipPath></defs><title>09</title><g id="_09" data-name="09"><rect id="_09-2" data-name="09" class="cls-2" width="4680" height="3120"/><path class="cls-3" d="M3572.45,1565.42c0-596.54-569-1080.14-1270.88-1080.14-266.17,0-513.21,69.56-717.38,188.44l545.3,325.72s-444.8-162.39-673-240.71A1203.38,1203.38,0,0,0,1364,836.29l89.67,63.63L1333.5,865.6c-138.45,138.22-236.65,306.46-279.2,491.62l573.48,372S1187.56,1600.93,1030.72,1562c0,1.16,0,2.31,0,3.47,0,596.55,569,1080.14,1270.87,1080.14,371.35,0,705.48-135.38,937.85-351.22l295.71,85.85L3308.9,2224.06c87.39-96.4,156-205.69,201.36-324l514.14,90.32-473.17-227.55A928.08,928.08,0,0,0,3572.45,1565.42Z"/><path class="cls-4" d="M1128.07,2173.9c-292.26-158.59-527.51-109.67-461.18-48.14s202.22,121.16,202.22,121.16-184.32-.12-194.54,65,393.13,71.8,393.13,71.8-160.22,23.59-142.4,67.24,412.83,15.48,412.83,15.48C1334.79,2452.48,1420.34,2332.49,1128.07,2173.9Z"/><path class="cls-4" d="M1624.4,2025.58s69.77-238,14.37-264.71-123.12,92.34-166.22,379.63,80,283.18,80,283.18c-32.83-49.25,199.05-408.36,172.37-451.45S1624.4,2025.58,1624.4,2025.58Z"/><path class="cls-5" d="M1585.51,2179.58s36.24-123.64,7.46-137.5-64,48-86.33,197.19,41.57,147.09,41.57,147.09c-17.06-25.58,103.39-212.11,89.53-234.49S1585.51,2179.58,1585.51,2179.58Z"/><path class="cls-5" d="M1393,1998.91c-69.77-14.37-84.14,61.56-104.66-49.25s-2-385.78-53.35-373.47-82.08,131.33-82.08,164.16c-125.17,73.88-63.61,293.44-63.61,293.44s-86.19-145.69-131.33-129.28-8.21,213.42,160.05,404.25S1464.77,2514,1464.77,2514l45.14-65.67s-84.13-170.32-90.29-277S1462.72,2013.27,1393,1998.91Z"/><path class="cls-4" d="M1414.61,2410.38c-2.61-4.14-5.44-8.14-8.33-12.09-5.8-7.88-11.88-15.54-18-23.13-12.44-15.1-25.25-29.87-38.11-44.59s-25.94-29.24-38.94-43.82l-39.13-43.63-19.47-21.88-9.67-11c-1.63-1.83-3.14-3.71-4.7-5.56s-3.17-3.67-4.6-5.63a214.57,214.57,0,0,1-29.5-49.88,199.46,199.46,0,0,1-14.45-56.22c-.57-4.82-.88-9.68-1.11-14.54s-.19-9.74,0-14.61.55-9.73,1.13-14.57a123.8,123.8,0,0,1,2.43-14.43,148.06,148.06,0,0,0-4.62,29c-.35,4.89-.44,9.79-.45,14.69s.24,9.81.67,14.7a201.12,201.12,0,0,0,13.55,57.18,191.28,191.28,0,0,0,12.88,26.56c1.17,2.17,2.53,4.22,3.82,6.32l2,3.13c.64,1.05,1.37,2,2.06,3.07,1.4,2,2.77,4.07,4.2,6.07l4.44,5.91c1.44,2,3.07,3.84,4.63,5.75s3.12,3.82,4.74,5.64l9.65,11.05,19.42,22q19.58,21.84,39.3,43.51l39.45,43.33c13.14,14.46,26.19,29,38.91,43.8,6.38,7.38,12.68,14.84,18.71,22.51,3,3.84,5.93,7.75,8.67,11.78,1.37,2,2.68,4.07,3.87,6.19a21.09,21.09,0,0,1,2.67,6.76,21.39,21.39,0,0,0-2.4-6.9C1417.14,2414.57,1415.91,2412.45,1414.61,2410.38Z"/><path class="cls-4" d="M1328,2319.27c-2.43-1.5-5-2.75-7.52-4.07s-5.16-2.45-7.81-3.5-5.33-2-8-3-5.42-1.78-8.17-2.52a165.44,165.44,0,0,0-16.68-3.66c-5.63-.88-11.27-1.58-16.94-1.91s-11.35-.43-17-.24A125.65,125.65,0,0,0,1229,2302a250.89,250.89,0,0,1,33.62,1.66c5.55.68,11.08,1.46,16.56,2.53s10.91,2.27,16.27,3.8c2.69.69,5.34,1.55,8,2.37s5.26,1.8,7.85,2.83,5.15,2.09,7.72,3.16,5.06,2.31,7.51,3.63a143.47,143.47,0,0,1,27.79,18.72A103.73,103.73,0,0,0,1328,2319.27Z"/><path class="cls-4" d="M1230.68,2205.8a288.94,288.94,0,0,0-27.36-18.49c-2.37-1.39-4.73-2.81-7.11-4.17s-4.79-2.72-7.2-4c-4.86-2.58-9.69-5.2-14.64-7.58a322,322,0,0,0-30.16-13.25l28.71,16c4.76,2.7,9.52,5.38,14.24,8.13,2.35,1.4,4.73,2.74,7.09,4.11s4.67,2.82,7,4.22,4.68,2.81,7,4.25,4.66,2.84,6.93,4.35l6.88,4.41,6.77,4.58a268,268,0,0,1,25.94,20C1247.77,2219.82,1239.37,2212.54,1230.68,2205.8Z"/><path class="cls-4" d="M1279.23,2209.52a117.55,117.55,0,0,1,0-17.2c.12-1.43.19-2.86.36-4.29l.56-4.26c.18-1.42.51-2.82.75-4.23l.38-2.12.51-2.09a103.77,103.77,0,0,1,13.5-31.79,83.2,83.2,0,0,0-16.52,31,102.81,102.81,0,0,0-3.57,35.25,138,138,0,0,0,7,34.65,140.26,140.26,0,0,0,15,31.8,218.55,218.55,0,0,1-12-32.71A167.22,167.22,0,0,1,1279.23,2209.52Z"/><path class="cls-5" d="M3305.88,2236.8c-342.76,186-242.43,326.7-246.35,343,0,0,463.26,33,484.15-18.15s-167-78.87-167-78.87,473-7.84,461-84.19-228.15-76.21-228.15-76.21,159.38-69.92,237.16-142.09S3648.63,2050.82,3305.88,2236.8Z"/><g class="cls-6"><path class="cls-7" d="M3207.47,2347.18c-168.25,91.29-169.56,172.58-171.48,180.61,0,0,278,4,288.21-21.13s-82-38.71-82-38.71,232.2-3.85,226.31-41.33-112-37.4-112-37.4,78.23-34.33,116.42-69.75S3375.71,2255.89,3207.47,2347.18Z"/></g><path class="cls-5" d="M2541.1,1780.07c-65,31.28,16.84,310.43,16.84,310.43s-86.63-113.1-117.91-62.56,240.65,471.67,202.14,529.43c0,0,144.39,4.81,93.86-332.1S2606.07,1748.78,2541.1,1780.07Z"/><path class="cls-4" d="M2619.63,2107.28c-31.1,17.89,8.07,177.55,8.07,177.55s-41.47-64.69-56.45-35.79,115.2,269.77,96.77,302.8c0,0,69.11,2.75,44.92-189.94S2650.74,2089.39,2619.63,2107.28Z"/><path class="cls-4" d="M3405.91,1882.17c-52.94-19.25-154,151.61-154,151.61s72.2-257.49-74.6-344.13c0-38.5-36.1-178.08-96.26-192.52s-38.5,308-62.57,438-40.91,40.91-122.73,57.75-24.07,77-31.29,202.15-105.88,324.88-105.88,324.88l52.94,77s209.37-16.85,406.7-240.65S3458.85,1901.43,3405.91,1882.17Z"/><path class="cls-5" d="M3131.24,2035a145,145,0,0,1,2.91,16.91c.69,5.68,1.13,11.39,1.37,17.1s.2,11.42,0,17.13-.6,11.41-1.26,17.07a234.22,234.22,0,0,1-16.86,66,251.71,251.71,0,0,1-34.59,58.6c-1.68,2.3-3.6,4.41-5.39,6.61s-3.61,4.39-5.52,6.53l-11.34,12.91q-11.37,12.87-22.84,25.66l-45.9,51.16c-15.26,17.08-30.62,34.09-45.71,51.35s-30.15,34.54-44.76,52.22c-7.25,8.88-14.4,17.85-21.23,27.07-3.4,4.62-6.72,9.31-9.8,14.15-1.53,2.43-3,4.91-4.28,7.47a24.74,24.74,0,0,0-2.84,8.08,24.53,24.53,0,0,1,3.11-7.94c1.38-2.5,2.91-4.91,4.52-7.28,3.2-4.74,6.63-9.32,10.14-13.84,7-9,14.41-17.77,21.88-26.45,14.89-17.4,30.18-34.45,45.56-51.43l46.23-50.86q23.1-25.45,46.06-51,11.45-12.82,22.79-25.74l11.31-13c1.9-2.13,3.71-4.4,5.56-6.6s3.73-4.4,5.43-6.74l5.21-6.91c1.67-2.35,3.28-4.75,4.92-7.12.8-1.2,1.66-2.35,2.42-3.59l2.29-3.66c1.51-2.46,3.11-4.87,4.48-7.41a225.73,225.73,0,0,0,15.12-31.08,235.72,235.72,0,0,0,16-67c.52-5.73.72-11.48.82-17.23s-.09-11.49-.49-17.22A173.59,173.59,0,0,0,3131.24,2035Z"/><path class="cls-5" d="M3048.29,2346.94c-6.64.41-13.25,1.24-19.83,2.29a194.94,194.94,0,0,0-19.53,4.31c-3.22.86-6.39,1.93-9.57,2.94s-6.3,2.21-9.37,3.53-6.12,2.69-9.15,4.07c-3,1.54-6,3-8.83,4.74a124,124,0,0,0-31,24.93,163.25,163.25,0,0,1,32.46-22.19c1.45-.76,2.89-1.53,4.39-2.2l4.42-2.1c3-1.27,6-2.62,9.07-3.73s6.13-2.26,9.21-3.34,6.24-2,9.4-2.8c6.29-1.78,12.68-3.26,19.12-4.44s12.93-2.14,19.45-2.91a281.88,281.88,0,0,1,39.45-1.68,150.82,150.82,0,0,0-19.8-1.8C3061.58,2346.38,3054.93,2346.48,3048.29,2346.94Z"/><path class="cls-5" d="M3135.05,2204.49l-8.42,4.73c-2.8,1.6-5.56,3.26-8.34,4.89a353.15,353.15,0,0,0-32.1,21.61c-10.22,7.87-20.1,16.33-28.43,26.19a296.11,296.11,0,0,1,30.26-23.66l7.93-5.41,8.07-5.2c2.66-1.77,5.42-3.4,8.12-5.11s5.44-3.38,8.21-5,5.47-3.33,8.24-4.94l8.31-4.82c5.55-3.21,11.14-6.34,16.74-9.48q16.82-9.36,33.8-18.52c-12,4.62-23.73,10-35.25,15.77C3146.4,2198.37,3140.74,2201.45,3135.05,2204.49Z"/><path class="cls-5" d="M3010.21,2162.49a119.74,119.74,0,0,1,16.09,37.21l.61,2.46.45,2.49c.29,1.66.69,3.3.9,5l.68,5c.2,1.67.28,3.36.43,5a136.46,136.46,0,0,1,.06,20.22,192.33,192.33,0,0,1-7.08,39.93,244.8,244.8,0,0,1-14.3,38.28,168.92,168.92,0,0,0,17.28-37.37,173.38,173.38,0,0,0,5.33-20,167.17,167.17,0,0,0,2.76-20.57c.84-13.82-.21-27.9-4.1-41.24A99,99,0,0,0,3010.21,2162.49Z"/><polygon class="cls-8" points="1653.78 2458.68 1546.89 2585.84 3400.89 2585.84 3249.03 2504.59 1653.78 2458.68"/><path class="cls-9" d="M1609.55,2444.86l-62.66,141h1854S1617.84,2442.09,1609.55,2444.86Z"/><path class="cls-8" d="M3304.13,2735.12h-47V2760h141V2630.07l-23.35-1.46c-28.21,21.91-57.11,41.8-86.12,61.17Z"/><path class="cls-8" d="M3288.65,2689.78c29-19.37,57.91-39.26,86.12-61.17l-109.34-6.83Z"/><path class="cls-10" d="M3400.89,2663.25v-55.71c-23.9,20.09-48.46,38.34-73.3,55.71Z"/><path class="cls-10" d="M1537.68,2585.84v77.41H3327.59c24.84-17.37,49.4-35.62,73.3-55.71v-21.7Z"/><path class="cls-9" d="M2284.07,1571.3H1792l24.88,251.56,109-139a43.13,43.13,0,0,1,3.3-3.73l13.74-13.73a41.43,41.43,0,0,1,29.32-12.14h311.79a41.47,41.47,0,0,0,41.46-41.47h0A41.47,41.47,0,0,0,2284.07,1571.3Z"/><g class="cls-11"><path class="cls-12" d="M2295.12,1624.75H1803.06l24.88,251.56,109-139a43.44,43.44,0,0,1,3.31-3.73l13.73-13.73a41.48,41.48,0,0,1,29.33-12.15h311.78a41.46,41.46,0,0,0,41.47-41.47h0A41.46,41.46,0,0,0,2295.12,1624.75Z"/></g><rect class="cls-10" x="1606.79" y="952.07" width="58.05" height="619.23" transform="translate(-430.03 1257.38) rotate(-37.52)"/><path class="cls-8" d="M1586.26,2676.32l255.68-905.85a276.78,276.78,0,0,0-1.83-156.62h0a535.1,535.1,0,0,0-76.82-154.77L1433,999.36a34.51,34.51,0,0,0-49.06-7.21h0a34.52,34.52,0,0,0-7.61,46.59l332.78,495.46a240.37,240.37,0,0,1,32.69,72l.92,3.44a310.63,310.63,0,0,1-1.11,164.1L1478.4,2709.52a34.51,34.51,0,0,0,33.22,43.85h510.07V2720.2H1619.47A34.51,34.51,0,0,1,1586.26,2676.32Z"/><g class="cls-13"><path class="cls-14" d="M1536.5,2676.32l255.69-905.85a276.87,276.87,0,0,0-1.83-156.62h0a534.88,534.88,0,0,0-76.83-154.77L1383.21,999.36a34.51,34.51,0,0,0-49.06-7.21h0a34.5,34.5,0,0,0-7.6,46.59l332.77,495.46a240.4,240.4,0,0,1,32.7,72l.91,3.44a310.53,310.53,0,0,1-1.11,164.1l-263.18,935.73a34.51,34.51,0,0,0,33.22,43.85h510.07V2720.2H1569.71A34.51,34.51,0,0,1,1536.5,2676.32Z"/></g><circle class="cls-10" cx="1546.89" cy="2518.57" r="128.08"/><circle class="cls-9" cx="1546.89" cy="2515.81" r="81.09"/><circle class="cls-8" cx="1539.52" cy="2519.5" r="58.97"/><path class="cls-15" d="M2002.1,2297c-24.88,5.53-45.62,22.12-116.11-2.76s-102.28-44.23-114.72-2.77,1.38,80.17,49.76,96.76,124.4,95.37,206,82.93,53.9-70.49,71.87-99.52,60.82-84.31,60.82-84.31l-94-55.29S2027,2291.43,2002.1,2297Z"/><g class="cls-16"><path class="cls-7" d="M2115.73,2456.83c-21.45-4.37-43.71-.94-65.49-3-57.83-5.62-104.75-48.78-160.08-66.5-14.36-4.6-29.28-7.47-43.3-13-18.77-7.41-35.39-19.37-50.84-32.34-21.78-18.28-43.25-43.06-39.93-71.29l-37.32,49.85c.94,18.57,6.22,36.63,11.89,54.34,11.13,34.74,24.43,69.75,48.26,97.37,35.7,41.37,91.41,61.15,145.95,64.67s108.85-7.41,162.4-18.32c13.89-2.82,28-5.71,40.67-12,7.78-3.84,15.47-9.67,17.5-18.1C2149.24,2472.72,2131.6,2460.06,2115.73,2456.83Z"/><path class="cls-7" d="M1981.56,2367.06c25.17,37.11,74.39,56.09,118,45.48,6.12-1.49,13-4.44,14.47-10.58l-2.17-29A161.68,161.68,0,0,1,1981.56,2367.06Z"/></g><path class="cls-17" d="M2275.77,1770.34c-16.58,82.93-58.05,141-94,221.15s-132.69,270.92-132.69,270.92,19.35-5.53,22.12,16.58-16.59,30.41-2.77,38.7,44.23,22.12,44.23,22.12,154.81-160.34,221.16-265.38c71.3-112.9,77.4-212.86,77.4-212.86l196.27-210.1L2427.82,1552S2292.36,1687.41,2275.77,1770.34Z"/><g class="cls-18"><path class="cls-19" d="M2719.93,1464.93c-59.33-22.32-124.76-25.36-187.45-16A494.71,494.71,0,0,0,2296,1553.1l24.24,80.17c22.36-5.58,46.19.08,67.11,9.76s39.77,23.24,59.82,34.62c53.29,30.26,115.79,44.82,176.77,38.71S2744,1683.08,2786.58,1639c10.44-10.81,20-22.85,25.4-36.89,10.94-28.66,2.23-62.26-16.69-86.4S2748.64,1475.73,2719.93,1464.93Z"/><path class="cls-19" d="M2295.93,2190.36c-3.41-1.3-7.22-.8-10.79-.07-41.7,8.49-71.63,43.81-106.84,67.71a215.14,215.14,0,0,1-151.17,34.32L2042,2408.51c22-5.33,41.1-18.63,59.61-31.66,66.31-46.65,133-93.65,189.81-151.49,4.93-5,9.95-10.41,11.79-17.19S2302.49,2192.87,2295.93,2190.36Z"/></g><path class="cls-15" d="M3587.49,1445.52c-53.91-37.32-67.73-62.19-87.08-92.6s-63.58-37.32-84.32,0-24.88,78.78-49.76,87.08-6.91,107.81-6.91,107.81,55.29-47,107.82-40.09,120.25,114.73,163.1,80.17S3641.39,1482.84,3587.49,1445.52Z"/><g class="cls-20"><path class="cls-7" d="M3685.2,1444.71c-15.92-30.07-34.83-58.87-59-82.76-40.47-39.92-93.46-64.11-145.26-87.5l-44.17,54.16c13.55-2.49,27.69,3.43,37.64,13s16.23,22.28,20.83,35.26c4.28,12.06,7.32,24.64,13.28,36s14.8,21.15,24.09,30.12c21.4,20.67,46.27,38.4,62.62,63.27s21.85,60.38,2.78,83.22c-4.81,5.76-11.12,10.74-13.25,17.93-2.44,8.18,1.52,17.3,8,22.82s15.12,7.93,23.6,8.92c28.57,3.37,58.49-8.78,76.64-31.1s24-53.15,20.7-81.88S3698.73,1470.27,3685.2,1444.71Z"/><path class="cls-7" d="M3398.13,1325.41l-5.33,42.08a122.81,122.81,0,0,1,68.52,52.87,111.74,111.74,0,0,0-24.31-74.88C3427.43,1333.57,3413.24,1323.05,3398.13,1325.41Z"/></g><path class="cls-17" d="M3377.39,1495.28c18-23.49,0-37.32-4.14-51.14s-176.93,42.85-247.42,94-77.4,77.41-77.4,77.41l-112-134.08L2787.19,1603.1l-5.53,2.76s113.34,132.69,196.27,170,82.94,52.53,136.84,5.53,132.69-147.9,188-190.74,95.38-70.5,95.38-70.5S3359.42,1518.78,3377.39,1495.28Z"/><g class="cls-21"><path class="cls-19" d="M3120.51,1392.39c-21.42-22.06-56-24.47-86.49-20.64-44,5.53-86.11,20.91-126.51,39.09-50.11,22.54-98.74,49.94-138.63,87.74s-70.69,86.82-79.53,141.06c-2.07,12.72-2.73,26.58,3.81,37.69s22.7,17.24,32.87,9.31l99.54,28.79c20.86-51,69.29-85.65,119.31-108.85s103.92-37.9,152.17-64.59c20.16-11.15,40.26-25.62,48.61-47.09,8.55-22,3-46.91-5.52-68.89C3135.41,1413.83,3129.61,1401.77,3120.51,1392.39Z"/><path class="cls-19" d="M3420.55,1373.86a290.64,290.64,0,0,0-159.36,29.51l-54.8,89.39c29.62-11.47,63.19-7.2,93.33,2.83s58.19,25.47,87.88,36.75c23.48,8.92,50.82,14.93,72.92,3,15-8.12,24.93-23.21,32.77-38.4,11.83-22.93,20.47-50.11,11.3-74.22C3492.44,1390.78,3454.54,1377.32,3420.55,1373.86Z"/></g><path class="cls-22" d="M2928.17,1404.52c-29.48-38.7-46.07-118-94-164s-242.13,4.5-242.13,4.5-74.85,113.44-104.34,172.42-47.91,97.67-64.5,117.95-29.49,44.23-29.49,44.23,118,97.67,188,123.47,71.88-73.71,99.52-114.26,136.38,88.46,136.38,88.46-9.22-47.91,79.24-99.52S3013,1478.23,3013,1478.23,2957.66,1443.22,2928.17,1404.52Z"/><g class="cls-23"><path class="cls-24" d="M2597.41,1597.79c-40.26,0-78.47-16.07-117-27.84s-81.49-19-118-2l-30.13,9.33c-3.08,32.93,7.29,66.22,24.86,94.23s42,51.16,68.37,71.14c34.77,26.37,74.92,48.23,118.45,51.26,14.38,1,29.45-.24,42-7.38,17-9.68,26.43-28.31,35-45.9l106.26-219.46C2701.67,1567.26,2650.1,1597.71,2597.41,1597.79Z"/></g><g class="cls-23"><path class="cls-25" d="M3068.87,1388.7l-89-82c-27.21-25.07-54.48-50.19-83.88-72.65a603.94,603.94,0,0,0-78.91-51.09c16.18,71,31.59,148.94-1.75,213.66-12.49,24.26-31.06,44.74-48.53,65.7-36.93,44.3-70.36,93.16-85.81,148.72l62.64,110.2c10.8,38.75,55,58.84,95.14,60.61,45,2,89.69-12.54,128.13-36s71.06-55.39,99.92-89.94c24.22-29,46.34-60.56,58.29-96.39s12.8-76.62-4.35-110.27C3108.64,1425.49,3088.55,1406.83,3068.87,1388.7Z"/></g><path class="cls-17" d="M2520.88,827.68c-46.07,3.68-114.26,108.73-141.9,132.69s-35,25.8-44.23-5.53-103.21-182.45-95.84-197.2,14.75-44.23-1.84-55.28-9.21-29.49-24-29.49-20.27-5.53-42.38,5.53-20.28-18.43-42.39,20.27,25.8,95.83,25.8,95.83,40.54,300.4,147.43,315.15,234.06-68.19,234.06-68.19S2567,824,2520.88,827.68Z"/><g class="cls-26"><path class="cls-19" d="M2622.11,907.56c-5.06-18.09-10.79-36.19-20.31-52.37a124.85,124.85,0,0,0-190.75-29.92c-9.46,8.44-17.77,23.38-9.27,32.8l-34.85,109.19A130.48,130.48,0,0,1,2422.51,915c2.7-1.33,5.75-2.59,8.63-1.74,2.66.77,4.5,3.13,6,5.45,10.49,16.16,13.31,35.9,18.11,54.55a246.18,246.18,0,0,0,35.89,78.48c15.92,23,36.77,43.82,63.2,52.91s59,3.88,76.69-17.78c18.46-22.62,16.37-55.24,11.81-84.08A840.8,840.8,0,0,0,2622.11,907.56Z"/><path class="cls-19" d="M2335.43,1099.62c-30.17-27.18-71-40.46-100.65-68.19-30.89-28.88-46.41-70.14-60.94-109.85l-41,42.67c-3.94,66.4,27.47,133.88,80.81,173.61,17.91,13.34,38.47,23.8,60.58,26.92s45.9-1.75,63-16.06c6.91-5.77,12.91-13.65,13.14-22.65C2350.64,1115.61,2343.2,1106.62,2335.43,1099.62Z"/></g><path class="cls-27" d="M2837.87,1218.38s-38.7-184.29-12.9-250.64-35-206.41-35-206.41-182.45-62.66-215.62-3.69c0,0-53.45,46.08-75.56,121.64s-22.12,114.26,12.9,184.29,44.23,164,40.54,180.61,7.38,18.43,7.38,31.33v33.17s99.52,24,215.62-40.54S2837.87,1218.38,2837.87,1218.38Z"/><g class="cls-28"><path class="cls-29" d="M2893.5,751.69c-7-34.51-32.95-63.12-63.95-79.8s-66.69-22.71-101.86-24.54c-6.18-.32-14.82,6.33-9.44,9.39l-2.33,33.82c-28.72,8.08-50.1,32.33-65.15,58.1-27.58,47.24-38.48,109-10.66,156.06,22.36,37.87,65.58,60.14,86.66,98.74,16.2,29.66,17.17,65,17.77,98.75q1.18,68.26,2.39,136.53c.38,22,.3,45.66-12.28,63.73-8.82,12.66-22.65,20.8-36.39,27.82a448.34,448.34,0,0,1-136.14,43.88,739.3,739.3,0,0,0,242.83-43c29.28-10.46,60.47-25.2,73.06-53.63,5.69-12.84,6.89-27.2,7-41.25.45-76.55-29.65-150.5-32.1-227-1.66-51.74,9.41-103.12,24.59-152.6C2888,822.44,2900.63,786.78,2893.5,751.69Z"/><path class="cls-30" d="M2634.57,1266.84c-.74-3.26-.9-6.86-3.07-9.4-2.31-2.71-6.17-3.34-9.68-3.92-12.89-2.13-25.79-6-36.28-13.84-40.26-29.93-27.94-100-66.89-131.59L2459.44,1164c13.26,32.22,6.14,68.62,5.27,103.45s8.71,75.29,40.32,89.93c17.26,8,37.29,6.29,56.15,3.79,75.7-10,155-33.2,204.07-91.71a206.66,206.66,0,0,1-79.92,21.85C2664.86,1292.64,2639.11,1286.83,2634.57,1266.84Z"/></g><path class="cls-31" d="M2649.89,392.74c-75.56-73.72-182.45-6.45-173.24,40.55-71.87,34.09-19.35,107.81-19.35,107.81s146.52,93.07,192.59,88.46,60.82-55.29,68.19-64.5,7.37-22.12,6.45-33.18,20.27-4.6,10.14-30.4S2714.39,385.37,2649.89,392.74Z"/><g class="cls-32"><path class="cls-33" d="M2518.68,428.58a54,54,0,0,0-3.34,8.81C2519.06,436.6,2520,432.19,2518.68,428.58Z"/><path class="cls-33" d="M2699,496.22c-8.23-6.46-18.5-9.62-28-14.06-3.09-1.45-6.25-3.16-8.08-6.05-4.87-7.68,2.33-17.16,9-23.35s13.87-15.66,9-23.35c-5.83-9.23-23.23-5.06-27.91-14.92-1.17-2.44-1.2-5.27-2.14-7.8-2.45-6.57-10-9.41-16.8-11.2-22.56-6-46.6-9-69.15-3-19.48,5.18-37.64,18.13-46.27,36.05,1.3,3.61.38,8-3.34,8.81a54,54,0,0,1,3.34-8.81,7.51,7.51,0,0,0-3.55-4.26c-5.1-2.55-11.23-.41-16.34,2.13-24.67,12.3-44.61,34.64-52,61.19s-1.39,57,17.13,77.37l-28.79-17.37c-.67,7.79,4.82,14.62,10.19,20.3A311.43,311.43,0,0,0,2599,656.53c15.59,3.68,32.7,6,47.06-1.12,13.32-6.6,21.7-20.06,28.54-33.26,8.51-16.41,15.76-36.09,8-52.86a39.32,39.32,0,0,1-2.73-6.25c-2.24-8.34,4.46-16.37,11.4-21.51s15.17-9.78,18.18-17.87C2713.09,513.84,2707.25,502.69,2699,496.22Z"/></g><path class="cls-17" d="M2634.23,647.07c56.21-34.1,32.25-90.31-18.43-70,9.21-37.78-49.76-77.41-49.76-77.41s-26.73-5.53-39.63-13.82-2.76,6.45-2.76,6.45-47.92,0-49.76-25.8c0,0-35.94,29.49-25.8,65.42s-32.25,58.06-32.25,58.06,20.27,16.58,19.35,24,.92,23,.92,23S2444.4,732.77,2531,706c10.14,25.8,27.65,67.27,18.43,94.91s-25.8,47-1.84,45.16,47-47,87.54-69.11,76.48-24.88,76.48-24.88S2637,688.53,2634.23,647.07Z"/><g class="cls-34"><path class="cls-19" d="M2594.81,462c-13.17-9.73-27.22-18.43-42.4-24.57a145.43,145.43,0,0,0-96.29-4.18c-6.26,1.92-13.45,5.61-13.83,12.15l23.92,11.79c-5.92,17.2,3.8,37.11,19.22,46.75s35,10.5,52.81,6.78l-5-8.41c2.46-3.09,7.36-1.74,11-.12,15.24,6.89,30.68,14.1,43,25.4s31.37,30.53,29.94,47.19c8.61.93,5.55-9.88,9.41-17.63,10.69-21.4,9-48.47-4.3-68.37C2615.15,478,2605.15,469.58,2594.81,462Z"/><path class="cls-19" d="M2627.16,600.68c-6,5.14-7.88,12.75-4.23,17s11.46,3.52,17.44-1.63,7.88-12.75,4.23-17S2633.14,595.54,2627.16,600.68Z"/><path class="cls-19" d="M2582.13,666.45c-1.51.13-2.67,1.3-3.7,2.4-17.22,18.42-37,35.82-61.24,42.81l-8.78,40.69c-1.85,9.27,5.14,18.82,14.13,21.73s19.1.18,26.87-5.2,13.56-13.15,18.72-21.07c14.66-22.47,25.69-49.82,19-75.8C2586.47,669.37,2584.84,666.21,2582.13,666.45Z"/></g><path class="cls-7" d="M2633.21,597.19a4,4,0,0,0-5.64-.53l-32.14,26.66a4,4,0,0,0-.53,5.63l9,10.87a4,4,0,0,0,5.63.52l32.14-26.66a4,4,0,0,0,.53-5.63Z"/><path class="cls-31" d="M2513.19,500a26.31,26.31,0,0,0-7.08,1,19.51,19.51,0,0,0-6.42,3.15c2.42.07,4.69,0,6.93-.06s4.42-.12,6.58-.14,4.31.08,6.48.22,4.31.53,6.73.9a14.47,14.47,0,0,0-6-4A22.28,22.28,0,0,0,2513.19,500Z"/><path class="cls-31" d="M2481.66,639.36a6.17,6.17,0,0,0-1.23-1.3,14.79,14.79,0,0,0-5-2.39,16.32,16.32,0,0,0-2.64-.59l-1.36-.17c-.46,0-.93,0-1.39,0a13.22,13.22,0,0,0-2.79.34,11.81,11.81,0,0,0-2.65,1,11.1,11.1,0,0,0-5.86,8.49,13.85,13.85,0,0,1,7.1-5.61,12.29,12.29,0,0,1,2.05-.44,13.64,13.64,0,0,1,2.12,0l1.06.07,1.08.21a12.9,12.9,0,0,1,2.14.54,15.56,15.56,0,0,1,3.92,1.58,4.85,4.85,0,0,1,.52.42c.06,0,.05.07.1.1h0c.11-.06,0,.45-.45.92a17.52,17.52,0,0,1-3.51,2.82c-1.34.9-2.77,1.73-4.2,2.64a22.46,22.46,0,0,0,5-.86,14,14,0,0,0,4.86-2.31,6.17,6.17,0,0,0,1.15-1.22,3.74,3.74,0,0,0,.48-3.27A4.66,4.66,0,0,0,2481.66,639.36Z"/><path class="cls-31" d="M2507.52,548.93c-5.34,0-9.67,5.78-9.67,12.9s4.33,12.9,9.67,12.9,9.68-5.77,9.68-12.9S2512.87,548.93,2507.52,548.93Z"/><path class="cls-7" d="M2504.53,553.77c-2.1,0-3.8,2.27-3.8,5.07s1.7,5.07,3.8,5.07,3.8-2.27,3.8-5.07S2506.63,553.77,2504.53,553.77Z"/><path class="cls-31" d="M2516.82,540.68a9.78,9.78,0,0,0-1.45-.81c-.49-.25-1-.47-1.51-.71a18.77,18.77,0,0,0-3.29-.9,11.47,11.47,0,0,0-7,.84,7.34,7.34,0,0,0-4.21,5.35,11.24,11.24,0,0,1,5.24-2.39,15.66,15.66,0,0,1,5.32.15,8.5,8.5,0,0,1,1.37.27c.46.1.92.18,1.39.29.92.3,1.89.48,2.84.78s2,.52,3,.82a22.52,22.52,0,0,0,3.16.72,19,19,0,0,0-2.21-2.44A20.86,20.86,0,0,0,2516.82,540.68Z"/><path class="cls-35" d="M2519,586.44a75.06,75.06,0,0,0-5.45,5.95,43.76,43.76,0,0,0-4.66,6.76,44.36,44.36,0,0,0,6.85-4.52,73.43,73.43,0,0,0,6.06-5.34,71.55,71.55,0,0,0,5.46-5.95,43.07,43.07,0,0,0,4.66-6.76,43.74,43.74,0,0,0-6.86,4.52A73.21,73.21,0,0,0,2519,586.44Z"/><path class="cls-35" d="M2531.39,593.89a33.81,33.81,0,0,0-3.37,4.32,21.8,21.8,0,0,0-2.53,5.09,21.52,21.52,0,0,0,4.84-3,33.07,33.07,0,0,0,4-3.74,33.71,33.71,0,0,0,3.37-4.31,21.87,21.87,0,0,0,2.53-5.1,21.33,21.33,0,0,0-4.85,3A33.1,33.1,0,0,0,2531.39,593.89Z"/><path class="cls-36" d="M2563.73,569.2c14.29.93-3.22-29-3.22-29S2549.45,568.28,2563.73,569.2Z"/><path class="cls-36" d="M2733.74,620.35s28.57,47,47,32.25S2733.74,620.35,2733.74,620.35Z"/><path class="cls-36" d="M2833.26,582.57c-17.5-2.77-31.33,21.19-31.33,21.19C2824.05,605.6,2850.77,585.33,2833.26,582.57Z"/><path class="cls-17" d="M2909.75,818.46c-59-5.53-84.78-66.34-178.77-66.34s-96.56,73.76-95.83,79.24c14.74,110.58,188,125.32,241.42,132.69s68.19-11,25.8,27.65-95.83,164-105,175.08-53.45,5.53-77.41,1.84-31.33,3.69-38.7,20.27,9.22,40.55,9.22,40.55,3.68,25.8,20.27,31.33,16.58-9.22,33.17,3.68,51.6-3.68,51.6-3.68,5.53,0,42.39-25.8,7.37-18.43,71.88-75.56,169.55-151.13,160.33-200.88S2968.72,824,2909.75,818.46Z"/><g class="cls-37"><path class="cls-19" d="M2927.51,727c-49.23-13.75-101-15.9-152.07-14.36-47.18,1.43-95.14,6.14-138.66,24.42l129.83,17.34c46.92,13.69,98.13,30.56,123.4,72.39,1.56,2.57,3,5.28,5.38,7.17,3.45,2.78,8.12,3.33,12.51,3.89,72.7,9.25,140.52,51.61,180.73,112.88,13.87-49.19-1.28-103.92-33.15-143.88S2976.74,740.69,2927.51,727Z"/><path class="cls-19" d="M2849.89,950.44c-8.33.11-16.53,1.86-24.78,3-38,5.1-76.51-3.57-112.69-16.14l-13.89,25.85c1.69,9.58,8.37,17.51,15.68,23.93,29.49,25.89,71.94,33.63,110.62,27s74.06-26.2,105.66-49.47L2876,953.75C2867.36,952,2858.67,950.32,2849.89,950.44Z"/><path class="cls-19" d="M2765.7,1252c-4.85-.72-6.5-7-6-11.83s1.94-10.24-.71-14.35a102.18,102.18,0,0,1-11.72,19.37c-2.43,3.16-7,6.38-9.92,3.69-1.52-1.39-1.64-3.69-1.66-5.74q-.17-16.47-.32-32.94c-1.34,8.61-2.82,17.58-8,24.61s-15.21,11.27-22.85,7.1c-7.22-4-9.35-13.28-9.65-21.5s.29-17-4.06-24a40.59,40.59,0,0,1-20.78,29.13l-14.35,29.9c20,25.95,49.92,48.21,82.51,45,15.15-1.46,29.25-8.3,42.28-16.18a259.38,259.38,0,0,0,58.92-48.86c-18.47,13.17-45.78,3.09-65.72,13.89C2771.17,1250.67,2768.53,1252.41,2765.7,1252Z"/></g><path class="cls-19" d="M2158.46,717.62l3.72-.45c-.82-.92-1.64-1.84-2.48-2.74Z"/><path class="cls-19" d="M2176.47,737.37c-.87-1.71-1.8-3.38-2.81-5a103.24,103.24,0,0,0-6.57-9.31c-1.58-2-3.21-4-4.91-5.89l-3.72.45,1.24-3.19c.84.9,1.66,1.82,2.48,2.74l3.27-.4a7.53,7.53,0,0,0,2.2-.54,4.34,4.34,0,0,0,2-1.89,7,7,0,0,0,.44-4.32,25.18,25.18,0,0,0-2.5-6.9,42.22,42.22,0,0,0-3.75-6.06q1.26,3.32,2.29,6.65a28.39,28.39,0,0,1,1.31,6.59,10.25,10.25,0,0,1-.06,1.49,3.17,3.17,0,0,1-.38,1.07,1.23,1.23,0,0,1-.6.41,5.36,5.36,0,0,1-1.23.12c-2.34.12-4.69.27-7,.42l-3.79.26,2.56,2.94c2.4,2.77,4.77,5.66,7.11,8.53s4.59,5.8,6.76,8.78a68.91,68.91,0,0,1,5.87,9.25,16.06,16.06,0,0,1,1.72,5,4.9,4.9,0,0,1-.28,2.52,4.24,4.24,0,0,1-1.81,1.95,4.26,4.26,0,0,0,2.43-1.59,5.56,5.56,0,0,0,1-2.89,15.52,15.52,0,0,0-.93-5.85A37,37,0,0,0,2176.47,737.37Z"/><path class="cls-19" d="M2209.28,693.75c-1.32,0-2.65,0-4,.08a22.6,22.6,0,0,0-4.09.61,11.18,11.18,0,0,0-4.15,1.9,6.37,6.37,0,0,0-1.72,2.09,6,6,0,0,0-.61,2.7,10.12,10.12,0,0,0,1.29,4.52c.64,1.15,1.22,2.33,1.92,3.47a33.44,33.44,0,0,0,4.79,6.56,14.36,14.36,0,0,0,3.5,2.75,7.78,7.78,0,0,0,1.66.67c.38-.94.78-1.88,1.2-2.83l2.84,2.39a3.19,3.19,0,0,1-1,.47,6.23,6.23,0,0,1-.81.18c-.25,0-.51,0-.76,0l-.72-.06c-.27,0-.52-.11-.77-.18-.89,2.17-1.69,4.35-2.45,6.57a84.5,84.5,0,0,0-2.61,9.73c-.31,1.66-.55,3.34-.7,5a25.66,25.66,0,0,0,0,5.11,13,13,0,0,0,1.41,5,6.45,6.45,0,0,0,3.82,3.22,6.46,6.46,0,0,1-3-3.59,13.06,13.06,0,0,1-.61-4.66,38.54,38.54,0,0,1,1.73-9.45,91.55,91.55,0,0,1,3.18-9.19c1.18-3,2.51-6,3.9-8.91l-2.85-2.39c.23-.15.11-.07.11-.08l-.13,0a.67.67,0,0,0-.2,0l-.24,0a4,4,0,0,1-1.17-.45,10.56,10.56,0,0,1-2.49-2.06,29.71,29.71,0,0,1-2.24-2.77l-1-1.5-1-1.57c-.67-1-1.23-2.17-1.86-3.25a7,7,0,0,1-.92-2.78,2.24,2.24,0,0,1,.84-1.93,7.63,7.63,0,0,1,2.77-1.36,31.79,31.79,0,0,1,7.19-1.08q3.75-.16,7.58,0c5.09.18,10.2.6,15.33,1.09a98.47,98.47,0,0,0-15.14-3.32A67.62,67.62,0,0,0,2209.28,693.75Z"/><path class="cls-19" d="M2209.37,719.34c.25,0,.51,0,.76,0a6.23,6.23,0,0,0,.81-.18,3.19,3.19,0,0,0,1-.47l-2.84-2.39c-.42,1-.82,1.89-1.2,2.83.25.07.5.13.77.18Z"/><ellipse class="cls-38" cx="2020.61" cy="1317.75" rx="49.76" ry="103.68" transform="translate(100.16 2777.62) rotate(-70.35)"/><path class="cls-38" d="M1878.84,1081.33c-32.77-11.7-63.9-8.43-69.51,7.3s16.4,38,49.17,49.68,63.9,8.43,69.52-7.3S1911.62,1093,1878.84,1081.33Z"/><path class="cls-38" d="M3242.78,1165.06c-24.05-8.58-46.89-6.19-51,5.36s12,27.86,36.08,36.45,46.89,6.19,51-5.35S3266.83,1173.65,3242.78,1165.06Z"/></g></svg>